<?xml version="1.0" encoding="UTF-8" standalone="no"?>
<svg
   xmlns:dc="http://purl.org/dc/elements/1.1/"
   xmlns:cc="http://creativecommons.org/ns#"
   xmlns:rdf="http://www.w3.org/1999/02/22-rdf-syntax-ns#"
   xmlns:svg="http://www.w3.org/2000/svg"
   xmlns="http://www.w3.org/2000/svg"
   xmlns:xlink="http://www.w3.org/1999/xlink"
   xmlns:sodipodi="http://sodipodi.sourceforge.net/DTD/sodipodi-0.dtd"
   xmlns:inkscape="http://www.inkscape.org/namespaces/inkscape"
   inkscape:version="1.0 (1.0+r73+1)"
   width="340pt"
   height="214pt"
   viewBox="0 0 340 214"
   version="1.2"
   id="svg135"
   sodipodi:docname="spatial_measure.svg"
   inkscape:export-filename="/home/mafontai/Dropbox/alpha_SpatialNMF/draft/spatial_measure.png"
   inkscape:export-xdpi="299.95862"
   inkscape:export-ydpi="299.95862">
  <metadata
     id="metadata141">
    <rdf:RDF>
      <cc:Work
         rdf:about="">
        <dc:format>image/svg+xml</dc:format>
        <dc:type
           rdf:resource="http://purl.org/dc/dcmitype/StillImage" />
        <dc:title />
      </cc:Work>
    </rdf:RDF>
  </metadata>
  <defs
     id="defs139">
    <g
       id="g6897">
      <symbol
         overflow="visible"
         id="symbol3941">
        <path
           style="stroke:none;"
           d=""
           id="path8782" />
      </symbol>
      <symbol
         overflow="visible"
         id="symbol2284">
        <path
           style="stroke:none;"
           d="M 6.09375 -6.78125 L 0.390625 -6.78125 L 0.390625 -6.3125 L 1.46875 -6.3125 L 1.46875 -0.46875 L 0.390625 -0.46875 L 0.390625 0 C 0.765625 -0.03125 1.78125 -0.03125 2.21875 -0.03125 C 2.703125 -0.03125 3.78125 -0.03125 4.234375 0 L 4.234375 -0.46875 L 2.875 -0.46875 L 2.875 -6.3125 L 4.03125 -6.3125 C 5.609375 -6.3125 5.796875 -5.546875 5.9375 -4.375 L 6.40625 -4.375 Z M 6.09375 -6.78125 "
           id="path2552" />
      </symbol>
      <symbol
         overflow="visible"
         id="symbol8300">
        <path
           style="stroke:none;"
           d=""
           id="path6111" />
      </symbol>
      <symbol
         overflow="visible"
         id="symbol6897">
        <path
           style="stroke:none;"
           d="M 1.734375 -0.734375 C 1.671875 -0.5 1.4375 -0.125 1.078125 -0.125 C 1.0625 -0.125 0.84375 -0.125 0.703125 -0.21875 C 0.984375 -0.3125 1.015625 -0.5625 1.015625 -0.609375 C 1.015625 -0.765625 0.890625 -0.859375 0.734375 -0.859375 C 0.53125 -0.859375 0.328125 -0.703125 0.328125 -0.4375 C 0.328125 -0.09375 0.71875 0.0625 1.0625 0.0625 C 1.390625 0.0625 1.671875 -0.125 1.84375 -0.421875 C 2.015625 -0.0625 2.390625 0.0625 2.671875 0.0625 C 3.484375 0.0625 3.90625 -0.796875 3.90625 -1 C 3.90625 -1.09375 3.8125 -1.09375 3.796875 -1.09375 C 3.6875 -1.09375 3.6875 -1.046875 3.65625 -0.96875 C 3.515625 -0.484375 3.09375 -0.125 2.703125 -0.125 C 2.421875 -0.125 2.28125 -0.3125 2.28125 -0.578125 C 2.28125 -0.765625 2.453125 -1.390625 2.640625 -2.171875 C 2.78125 -2.703125 3.09375 -2.875 3.328125 -2.875 C 3.34375 -2.875 3.546875 -2.875 3.703125 -2.78125 C 3.484375 -2.71875 3.390625 -2.515625 3.390625 -2.390625 C 3.390625 -2.25 3.515625 -2.140625 3.671875 -2.140625 C 3.828125 -2.140625 4.0625 -2.265625 4.0625 -2.5625 C 4.0625 -2.953125 3.609375 -3.078125 3.34375 -3.078125 C 2.984375 -3.078125 2.703125 -2.84375 2.5625 -2.578125 C 2.4375 -2.859375 2.109375 -3.078125 1.71875 -3.078125 C 0.9375 -3.078125 0.5 -2.21875 0.5 -2 C 0.5 -1.921875 0.59375 -1.921875 0.609375 -1.921875 C 0.703125 -1.921875 0.703125 -1.9375 0.75 -2.03125 C 0.921875 -2.578125 1.359375 -2.875 1.703125 -2.875 C 1.9375 -2.875 2.125 -2.75 2.125 -2.421875 C 2.125 -2.28125 2.03125 -1.9375 1.96875 -1.6875 Z M 1.734375 -0.734375 "
           id="path2399" />
      </symbol>
    </g>
    <g
       id="g5395">
      <symbol
         overflow="visible"
         id="symbol296">
        <path
           style="stroke:none;"
           d=""
           id="path2948" />
      </symbol>
      <symbol
         overflow="visible"
         id="symbol3059">
        <path
           style="stroke:none;"
           d="M 6.09375 -6.78125 L 0.390625 -6.78125 L 0.390625 -6.3125 L 1.46875 -6.3125 L 1.46875 -0.46875 L 0.390625 -0.46875 L 0.390625 0 C 0.765625 -0.03125 1.78125 -0.03125 2.21875 -0.03125 C 2.703125 -0.03125 3.78125 -0.03125 4.234375 0 L 4.234375 -0.46875 L 2.875 -0.46875 L 2.875 -6.3125 L 4.03125 -6.3125 C 5.609375 -6.3125 5.796875 -5.546875 5.9375 -4.375 L 6.40625 -4.375 Z M 6.09375 -6.78125 "
           id="path6692" />
      </symbol>
      <symbol
         overflow="visible"
         id="symbol2404">
        <path
           style="stroke:none;"
           d=""
           id="path6543" />
      </symbol>
      <symbol
         overflow="visible"
         id="symbol7273">
        <path
           style="stroke:none;"
           d="M 2.328125 -4.4375 C 2.328125 -4.625 2.328125 -4.625 2.125 -4.625 C 1.671875 -4.1875 1.046875 -4.1875 0.765625 -4.1875 L 0.765625 -3.9375 C 0.921875 -3.9375 1.390625 -3.9375 1.765625 -4.125 L 1.765625 -0.578125 C 1.765625 -0.34375 1.765625 -0.25 1.078125 -0.25 L 0.8125 -0.25 L 0.8125 0 C 0.9375 0 1.796875 -0.03125 2.046875 -0.03125 C 2.265625 -0.03125 3.140625 0 3.296875 0 L 3.296875 -0.25 L 3.03125 -0.25 C 2.328125 -0.25 2.328125 -0.34375 2.328125 -0.578125 Z M 2.328125 -4.4375 "
           id="path4770" />
      </symbol>
    </g>
    <g
       id="g4104">
      <symbol
         overflow="visible"
         id="symbol4214">
        <path
           style="stroke:none;"
           d=""
           id="path1651" />
      </symbol>
      <symbol
         overflow="visible"
         id="symbol6713">
        <path
           style="stroke:none;"
           d="M 6.09375 -6.78125 L 0.390625 -6.78125 L 0.390625 -6.3125 L 1.46875 -6.3125 L 1.46875 -0.46875 L 0.390625 -0.46875 L 0.390625 0 C 0.765625 -0.03125 1.78125 -0.03125 2.21875 -0.03125 C 2.703125 -0.03125 3.78125 -0.03125 4.234375 0 L 4.234375 -0.46875 L 2.875 -0.46875 L 2.875 -6.3125 L 4.03125 -6.3125 C 5.609375 -6.3125 5.796875 -5.546875 5.9375 -4.375 L 6.40625 -4.375 Z M 6.09375 -6.78125 "
           id="path6782" />
      </symbol>
      <symbol
         overflow="visible"
         id="symbol5019">
        <path
           style="stroke:none;"
           d=""
           id="path309" />
      </symbol>
      <symbol
         overflow="visible"
         id="symbol4043">
        <path
           style="stroke:none;"
           d="M 3.515625 -1.265625 L 3.28125 -1.265625 C 3.265625 -1.109375 3.1875 -0.703125 3.09375 -0.640625 C 3.046875 -0.59375 2.515625 -0.59375 2.40625 -0.59375 L 1.125 -0.59375 C 1.859375 -1.234375 2.109375 -1.4375 2.515625 -1.765625 C 3.03125 -2.171875 3.515625 -2.609375 3.515625 -3.265625 C 3.515625 -4.109375 2.78125 -4.625 1.890625 -4.625 C 1.03125 -4.625 0.4375 -4.015625 0.4375 -3.375 C 0.4375 -3.03125 0.734375 -2.984375 0.8125 -2.984375 C 0.96875 -2.984375 1.171875 -3.109375 1.171875 -3.359375 C 1.171875 -3.484375 1.125 -3.734375 0.765625 -3.734375 C 0.984375 -4.21875 1.453125 -4.375 1.78125 -4.375 C 2.484375 -4.375 2.84375 -3.828125 2.84375 -3.265625 C 2.84375 -2.65625 2.40625 -2.1875 2.1875 -1.9375 L 0.515625 -0.265625 C 0.4375 -0.203125 0.4375 -0.1875 0.4375 0 L 3.3125 0 Z M 3.515625 -1.265625 "
           id="path6614" />
      </symbol>
    </g>
    <g
       id="g7527">
      <symbol
         overflow="visible"
         id="symbol5796">
        <path
           style="stroke:none;"
           d=""
           id="path967" />
      </symbol>
      <symbol
         overflow="visible"
         id="symbol6479">
        <path
           style="stroke:none;"
           d="M 6.09375 -6.78125 L 0.390625 -6.78125 L 0.390625 -6.3125 L 1.46875 -6.3125 L 1.46875 -0.46875 L 0.390625 -0.46875 L 0.390625 0 C 0.765625 -0.03125 1.78125 -0.03125 2.21875 -0.03125 C 2.703125 -0.03125 3.78125 -0.03125 4.234375 0 L 4.234375 -0.46875 L 2.875 -0.46875 L 2.875 -6.3125 L 4.03125 -6.3125 C 5.609375 -6.3125 5.796875 -5.546875 5.9375 -4.375 L 6.40625 -4.375 Z M 6.09375 -6.78125 "
           id="path9944" />
      </symbol>
      <symbol
         overflow="visible"
         id="symbol4254">
        <path
           style="stroke:none;"
           d=""
           id="path2254" />
      </symbol>
      <symbol
         overflow="visible"
         id="symbol3769">
        <path
           style="stroke:none;"
           d="M 1.90625 -2.328125 C 2.453125 -2.328125 2.84375 -1.953125 2.84375 -1.203125 C 2.84375 -0.34375 2.328125 -0.078125 1.9375 -0.078125 C 1.65625 -0.078125 1.03125 -0.15625 0.75 -0.578125 C 1.078125 -0.578125 1.15625 -0.8125 1.15625 -0.96875 C 1.15625 -1.1875 0.984375 -1.34375 0.765625 -1.34375 C 0.578125 -1.34375 0.375 -1.21875 0.375 -0.9375 C 0.375 -0.28125 1.09375 0.140625 1.9375 0.140625 C 2.90625 0.140625 3.578125 -0.515625 3.578125 -1.203125 C 3.578125 -1.75 3.140625 -2.296875 2.375 -2.453125 C 3.09375 -2.71875 3.359375 -3.234375 3.359375 -3.671875 C 3.359375 -4.21875 2.734375 -4.625 1.953125 -4.625 C 1.1875 -4.625 0.59375 -4.25 0.59375 -3.6875 C 0.59375 -3.453125 0.75 -3.328125 0.953125 -3.328125 C 1.171875 -3.328125 1.3125 -3.484375 1.3125 -3.671875 C 1.3125 -3.875 1.171875 -4.03125 0.953125 -4.046875 C 1.203125 -4.34375 1.671875 -4.421875 1.9375 -4.421875 C 2.25 -4.421875 2.6875 -4.265625 2.6875 -3.671875 C 2.6875 -3.375 2.59375 -3.046875 2.40625 -2.84375 C 2.1875 -2.578125 1.984375 -2.5625 1.640625 -2.53125 C 1.46875 -2.515625 1.453125 -2.515625 1.421875 -2.515625 C 1.40625 -2.515625 1.34375 -2.5 1.34375 -2.421875 C 1.34375 -2.328125 1.40625 -2.328125 1.53125 -2.328125 Z M 1.90625 -2.328125 "
           id="path5548" />
      </symbol>
    </g>
    <g
       id="g7856">
      <symbol
         overflow="visible"
         id="symbol3509">
        <path
           style="stroke:none;"
           d=""
           id="path7899" />
      </symbol>
      <symbol
         overflow="visible"
         id="symbol5012">
        <path
           style="stroke:none;"
           d="M 6.09375 -6.78125 L 0.390625 -6.78125 L 0.390625 -6.3125 L 1.46875 -6.3125 L 1.46875 -0.46875 L 0.390625 -0.46875 L 0.390625 0 C 0.765625 -0.03125 1.78125 -0.03125 2.21875 -0.03125 C 2.703125 -0.03125 3.78125 -0.03125 4.234375 0 L 4.234375 -0.46875 L 2.875 -0.46875 L 2.875 -6.3125 L 4.03125 -6.3125 C 5.609375 -6.3125 5.796875 -5.546875 5.9375 -4.375 L 6.40625 -4.375 Z M 6.09375 -6.78125 "
           id="path2171" />
      </symbol>
      <symbol
         overflow="visible"
         id="symbol2220">
        <path
           style="stroke:none;"
           d=""
           id="path7094" />
      </symbol>
      <symbol
         overflow="visible"
         id="symbol9000">
        <path
           style="stroke:none;"
           d="M 3.6875 -1.140625 L 3.6875 -1.390625 L 2.90625 -1.390625 L 2.90625 -4.5 C 2.90625 -4.640625 2.90625 -4.703125 2.765625 -4.703125 C 2.671875 -4.703125 2.640625 -4.703125 2.578125 -4.59375 L 0.265625 -1.390625 L 0.265625 -1.140625 L 2.328125 -1.140625 L 2.328125 -0.578125 C 2.328125 -0.328125 2.328125 -0.25 1.75 -0.25 L 1.5625 -0.25 L 1.5625 0 C 1.921875 -0.015625 2.359375 -0.03125 2.609375 -0.03125 C 2.875 -0.03125 3.3125 -0.015625 3.671875 0 L 3.671875 -0.25 L 3.484375 -0.25 C 2.90625 -0.25 2.90625 -0.328125 2.90625 -0.578125 L 2.90625 -1.140625 Z M 2.375 -3.9375 L 2.375 -1.390625 L 0.53125 -1.390625 Z M 2.375 -3.9375 "
           id="path3019" />
      </symbol>
    </g>
    <g
       id="g5761">
      <symbol
         overflow="visible"
         id="symbol9521">
        <path
           style="stroke:none;"
           d=""
           id="path753" />
      </symbol>
      <symbol
         overflow="visible"
         id="symbol9878">
        <path
           style="stroke:none;"
           d="M 3.453125 -2.453125 L 4.609375 -3.75 C 4.75 -3.890625 4.8125 -3.953125 5.625 -3.953125 L 5.625 -4.421875 C 5.28125 -4.40625 4.765625 -4.390625 4.71875 -4.390625 C 4.46875 -4.390625 3.96875 -4.421875 3.6875 -4.421875 L 3.6875 -3.953125 C 3.828125 -3.953125 3.953125 -3.9375 4.0625 -3.875 C 4.03125 -3.8125 4.03125 -3.78125 3.984375 -3.75 L 3.15625 -2.8125 L 2.171875 -3.953125 L 2.578125 -3.953125 L 2.578125 -4.421875 C 2.3125 -4.421875 1.6875 -4.390625 1.359375 -4.390625 C 1.046875 -4.390625 0.59375 -4.421875 0.265625 -4.421875 L 0.265625 -3.953125 L 0.984375 -3.953125 L 2.53125 -2.125 L 1.21875 -0.65625 C 1.0625 -0.46875 0.703125 -0.46875 0.21875 -0.46875 L 0.21875 0 C 0.5625 -0.015625 1.09375 -0.03125 1.140625 -0.03125 C 1.390625 -0.03125 1.96875 -0.015625 2.15625 0 L 2.15625 -0.46875 C 1.984375 -0.46875 1.796875 -0.515625 1.796875 -0.578125 C 1.796875 -0.59375 1.796875 -0.59375 1.859375 -0.671875 L 2.828125 -1.765625 L 3.921875 -0.46875 L 3.53125 -0.46875 L 3.53125 0 C 3.796875 -0.015625 4.40625 -0.03125 4.734375 -0.03125 C 5.046875 -0.03125 5.5 -0.015625 5.828125 0 L 5.828125 -0.46875 L 5.125 -0.46875 Z M 3.453125 -2.453125 "
           id="path8452" />
      </symbol>
      <symbol
         overflow="visible"
         id="symbol1151">
        <path
           style="stroke:none;"
           d=""
           id="path8266" />
      </symbol>
      <symbol
         overflow="visible"
         id="symbol7818">
        <path
           style="stroke:none;"
           d="M 2.328125 -4.4375 C 2.328125 -4.625 2.328125 -4.625 2.125 -4.625 C 1.671875 -4.1875 1.046875 -4.1875 0.765625 -4.1875 L 0.765625 -3.9375 C 0.921875 -3.9375 1.390625 -3.9375 1.765625 -4.125 L 1.765625 -0.578125 C 1.765625 -0.34375 1.765625 -0.25 1.078125 -0.25 L 0.8125 -0.25 L 0.8125 0 C 0.9375 0 1.796875 -0.03125 2.046875 -0.03125 C 2.265625 -0.03125 3.140625 0 3.296875 0 L 3.296875 -0.25 L 3.03125 -0.25 C 2.328125 -0.25 2.328125 -0.34375 2.328125 -0.578125 Z M 2.328125 -4.4375 "
           id="path2624" />
      </symbol>
    </g>
    <g
       id="g6377">
      <symbol
         overflow="visible"
         id="symbol3555">
        <path
           style="stroke:none;"
           d=""
           id="path1958" />
      </symbol>
      <symbol
         overflow="visible"
         id="symbol361">
        <path
           style="stroke:none;"
           d="M 3.453125 -2.453125 L 4.609375 -3.75 C 4.75 -3.890625 4.8125 -3.953125 5.625 -3.953125 L 5.625 -4.421875 C 5.28125 -4.40625 4.765625 -4.390625 4.71875 -4.390625 C 4.46875 -4.390625 3.96875 -4.421875 3.6875 -4.421875 L 3.6875 -3.953125 C 3.828125 -3.953125 3.953125 -3.9375 4.0625 -3.875 C 4.03125 -3.8125 4.03125 -3.78125 3.984375 -3.75 L 3.15625 -2.8125 L 2.171875 -3.953125 L 2.578125 -3.953125 L 2.578125 -4.421875 C 2.3125 -4.421875 1.6875 -4.390625 1.359375 -4.390625 C 1.046875 -4.390625 0.59375 -4.421875 0.265625 -4.421875 L 0.265625 -3.953125 L 0.984375 -3.953125 L 2.53125 -2.125 L 1.21875 -0.65625 C 1.0625 -0.46875 0.703125 -0.46875 0.21875 -0.46875 L 0.21875 0 C 0.5625 -0.015625 1.09375 -0.03125 1.140625 -0.03125 C 1.390625 -0.03125 1.96875 -0.015625 2.15625 0 L 2.15625 -0.46875 C 1.984375 -0.46875 1.796875 -0.515625 1.796875 -0.578125 C 1.796875 -0.59375 1.796875 -0.59375 1.859375 -0.671875 L 2.828125 -1.765625 L 3.921875 -0.46875 L 3.53125 -0.46875 L 3.53125 0 C 3.796875 -0.015625 4.40625 -0.03125 4.734375 -0.03125 C 5.046875 -0.03125 5.5 -0.015625 5.828125 0 L 5.828125 -0.46875 L 5.125 -0.46875 Z M 3.453125 -2.453125 "
           id="path2493" />
      </symbol>
      <symbol
         overflow="visible"
         id="symbol2608">
        <path
           style="stroke:none;"
           d=""
           id="path2730" />
      </symbol>
      <symbol
         overflow="visible"
         id="symbol2274">
        <path
           style="stroke:none;"
           d="M 3.515625 -1.265625 L 3.28125 -1.265625 C 3.265625 -1.109375 3.1875 -0.703125 3.09375 -0.640625 C 3.046875 -0.59375 2.515625 -0.59375 2.40625 -0.59375 L 1.125 -0.59375 C 1.859375 -1.234375 2.109375 -1.4375 2.515625 -1.765625 C 3.03125 -2.171875 3.515625 -2.609375 3.515625 -3.265625 C 3.515625 -4.109375 2.78125 -4.625 1.890625 -4.625 C 1.03125 -4.625 0.4375 -4.015625 0.4375 -3.375 C 0.4375 -3.03125 0.734375 -2.984375 0.8125 -2.984375 C 0.96875 -2.984375 1.171875 -3.109375 1.171875 -3.359375 C 1.171875 -3.484375 1.125 -3.734375 0.765625 -3.734375 C 0.984375 -4.21875 1.453125 -4.375 1.78125 -4.375 C 2.484375 -4.375 2.84375 -3.828125 2.84375 -3.265625 C 2.84375 -2.65625 2.40625 -2.1875 2.1875 -1.9375 L 0.515625 -0.265625 C 0.4375 -0.203125 0.4375 -0.1875 0.4375 0 L 3.3125 0 Z M 3.515625 -1.265625 "
           id="path6442" />
      </symbol>
    </g>
    <g
       id="g5053">
      <symbol
         overflow="visible"
         id="symbol2395">
        <path
           style="stroke:none;"
           d=""
           id="path3137" />
      </symbol>
      <symbol
         overflow="visible"
         id="symbol6186">
        <path
           style="stroke:none;"
           d="M 3.453125 -2.453125 L 4.609375 -3.75 C 4.75 -3.890625 4.8125 -3.953125 5.625 -3.953125 L 5.625 -4.421875 C 5.28125 -4.40625 4.765625 -4.390625 4.71875 -4.390625 C 4.46875 -4.390625 3.96875 -4.421875 3.6875 -4.421875 L 3.6875 -3.953125 C 3.828125 -3.953125 3.953125 -3.9375 4.0625 -3.875 C 4.03125 -3.8125 4.03125 -3.78125 3.984375 -3.75 L 3.15625 -2.8125 L 2.171875 -3.953125 L 2.578125 -3.953125 L 2.578125 -4.421875 C 2.3125 -4.421875 1.6875 -4.390625 1.359375 -4.390625 C 1.046875 -4.390625 0.59375 -4.421875 0.265625 -4.421875 L 0.265625 -3.953125 L 0.984375 -3.953125 L 2.53125 -2.125 L 1.21875 -0.65625 C 1.0625 -0.46875 0.703125 -0.46875 0.21875 -0.46875 L 0.21875 0 C 0.5625 -0.015625 1.09375 -0.03125 1.140625 -0.03125 C 1.390625 -0.03125 1.96875 -0.015625 2.15625 0 L 2.15625 -0.46875 C 1.984375 -0.46875 1.796875 -0.515625 1.796875 -0.578125 C 1.796875 -0.59375 1.796875 -0.59375 1.859375 -0.671875 L 2.828125 -1.765625 L 3.921875 -0.46875 L 3.53125 -0.46875 L 3.53125 0 C 3.796875 -0.015625 4.40625 -0.03125 4.734375 -0.03125 C 5.046875 -0.03125 5.5 -0.015625 5.828125 0 L 5.828125 -0.46875 L 5.125 -0.46875 Z M 3.453125 -2.453125 "
           id="path4940" />
      </symbol>
      <symbol
         overflow="visible"
         id="symbol6791">
        <path
           style="stroke:none;"
           d=""
           id="path4238" />
      </symbol>
      <symbol
         overflow="visible"
         id="symbol7240">
        <path
           style="stroke:none;"
           d="M 1.90625 -2.328125 C 2.453125 -2.328125 2.84375 -1.953125 2.84375 -1.203125 C 2.84375 -0.34375 2.328125 -0.078125 1.9375 -0.078125 C 1.65625 -0.078125 1.03125 -0.15625 0.75 -0.578125 C 1.078125 -0.578125 1.15625 -0.8125 1.15625 -0.96875 C 1.15625 -1.1875 0.984375 -1.34375 0.765625 -1.34375 C 0.578125 -1.34375 0.375 -1.21875 0.375 -0.9375 C 0.375 -0.28125 1.09375 0.140625 1.9375 0.140625 C 2.90625 0.140625 3.578125 -0.515625 3.578125 -1.203125 C 3.578125 -1.75 3.140625 -2.296875 2.375 -2.453125 C 3.09375 -2.71875 3.359375 -3.234375 3.359375 -3.671875 C 3.359375 -4.21875 2.734375 -4.625 1.953125 -4.625 C 1.1875 -4.625 0.59375 -4.25 0.59375 -3.6875 C 0.59375 -3.453125 0.75 -3.328125 0.953125 -3.328125 C 1.171875 -3.328125 1.3125 -3.484375 1.3125 -3.671875 C 1.3125 -3.875 1.171875 -4.03125 0.953125 -4.046875 C 1.203125 -4.34375 1.671875 -4.421875 1.9375 -4.421875 C 2.25 -4.421875 2.6875 -4.265625 2.6875 -3.671875 C 2.6875 -3.375 2.59375 -3.046875 2.40625 -2.84375 C 2.1875 -2.578125 1.984375 -2.5625 1.640625 -2.53125 C 1.46875 -2.515625 1.453125 -2.515625 1.421875 -2.515625 C 1.40625 -2.515625 1.34375 -2.5 1.34375 -2.421875 C 1.34375 -2.328125 1.40625 -2.328125 1.53125 -2.328125 Z M 1.90625 -2.328125 "
           id="path886" />
      </symbol>
    </g>
    <g
       id="g2587">
      <symbol
         overflow="visible"
         id="symbol2210">
        <path
           style="stroke:none;"
           d=""
           id="path6390" />
      </symbol>
      <symbol
         overflow="visible"
         id="symbol2320">
        <path
           style="stroke:none;"
           d="M 3.453125 -2.453125 L 4.609375 -3.75 C 4.75 -3.890625 4.8125 -3.953125 5.625 -3.953125 L 5.625 -4.421875 C 5.28125 -4.40625 4.765625 -4.390625 4.71875 -4.390625 C 4.46875 -4.390625 3.96875 -4.421875 3.6875 -4.421875 L 3.6875 -3.953125 C 3.828125 -3.953125 3.953125 -3.9375 4.0625 -3.875 C 4.03125 -3.8125 4.03125 -3.78125 3.984375 -3.75 L 3.15625 -2.8125 L 2.171875 -3.953125 L 2.578125 -3.953125 L 2.578125 -4.421875 C 2.3125 -4.421875 1.6875 -4.390625 1.359375 -4.390625 C 1.046875 -4.390625 0.59375 -4.421875 0.265625 -4.421875 L 0.265625 -3.953125 L 0.984375 -3.953125 L 2.53125 -2.125 L 1.21875 -0.65625 C 1.0625 -0.46875 0.703125 -0.46875 0.21875 -0.46875 L 0.21875 0 C 0.5625 -0.015625 1.09375 -0.03125 1.140625 -0.03125 C 1.390625 -0.03125 1.96875 -0.015625 2.15625 0 L 2.15625 -0.46875 C 1.984375 -0.46875 1.796875 -0.515625 1.796875 -0.578125 C 1.796875 -0.59375 1.796875 -0.59375 1.859375 -0.671875 L 2.828125 -1.765625 L 3.921875 -0.46875 L 3.53125 -0.46875 L 3.53125 0 C 3.796875 -0.015625 4.40625 -0.03125 4.734375 -0.03125 C 5.046875 -0.03125 5.5 -0.015625 5.828125 0 L 5.828125 -0.46875 L 5.125 -0.46875 Z M 3.453125 -2.453125 "
           id="path8858" />
      </symbol>
      <symbol
         overflow="visible"
         id="symbol7514">
        <path
           style="stroke:none;"
           d=""
           id="path7752" />
      </symbol>
      <symbol
         overflow="visible"
         id="symbol4644">
        <path
           style="stroke:none;"
           d="M 3.6875 -1.140625 L 3.6875 -1.390625 L 2.90625 -1.390625 L 2.90625 -4.5 C 2.90625 -4.640625 2.90625 -4.703125 2.765625 -4.703125 C 2.671875 -4.703125 2.640625 -4.703125 2.578125 -4.59375 L 0.265625 -1.390625 L 0.265625 -1.140625 L 2.328125 -1.140625 L 2.328125 -0.578125 C 2.328125 -0.328125 2.328125 -0.25 1.75 -0.25 L 1.5625 -0.25 L 1.5625 0 C 1.921875 -0.015625 2.359375 -0.03125 2.609375 -0.03125 C 2.875 -0.03125 3.3125 -0.015625 3.671875 0 L 3.671875 -0.25 L 3.484375 -0.25 C 2.90625 -0.25 2.90625 -0.328125 2.90625 -0.578125 L 2.90625 -1.140625 Z M 2.375 -3.9375 L 2.375 -1.390625 L 0.53125 -1.390625 Z M 2.375 -3.9375 "
           id="path7922" />
      </symbol>
    </g>
    <g
       id="g4390">
      <symbol
         id="symbol5998"
         overflow="visible">
        <path
           id="path2191"
           d=""
           style="stroke:none;" />
      </symbol>
      <symbol
         id="symbol707"
         overflow="visible">
        <path
           id="path4046"
           d="M 0.875 -0.59375 C 0.84375 -0.4375 0.78125 -0.203125 0.78125 -0.15625 C 0.78125 0.015625 0.921875 0.109375 1.078125 0.109375 C 1.203125 0.109375 1.375 0.03125 1.453125 -0.171875 C 1.453125 -0.1875 1.578125 -0.65625 1.640625 -0.90625 L 1.859375 -1.796875 C 1.90625 -2.03125 1.96875 -2.25 2.03125 -2.46875 C 2.0625 -2.640625 2.140625 -2.9375 2.15625 -2.96875 C 2.296875 -3.28125 2.828125 -4.1875 3.78125 -4.1875 C 4.234375 -4.1875 4.3125 -3.8125 4.3125 -3.484375 C 4.3125 -3.234375 4.25 -2.953125 4.171875 -2.65625 L 3.890625 -1.5 L 3.6875 -0.75 C 3.65625 -0.546875 3.5625 -0.203125 3.5625 -0.15625 C 3.5625 0.015625 3.703125 0.109375 3.84375 0.109375 C 4.15625 0.109375 4.21875 -0.140625 4.296875 -0.453125 C 4.4375 -1.015625 4.8125 -2.46875 4.890625 -2.859375 C 4.921875 -2.984375 5.453125 -4.1875 6.546875 -4.1875 C 6.96875 -4.1875 7.078125 -3.84375 7.078125 -3.484375 C 7.078125 -2.921875 6.65625 -1.78125 6.453125 -1.25 C 6.375 -1.015625 6.328125 -0.90625 6.328125 -0.703125 C 6.328125 -0.234375 6.671875 0.109375 7.140625 0.109375 C 8.078125 0.109375 8.453125 -1.34375 8.453125 -1.421875 C 8.453125 -1.53125 8.359375 -1.53125 8.328125 -1.53125 C 8.234375 -1.53125 8.234375 -1.5 8.1875 -1.34375 C 8.03125 -0.8125 7.71875 -0.109375 7.171875 -0.109375 C 7 -0.109375 6.921875 -0.203125 6.921875 -0.4375 C 6.921875 -0.6875 7.015625 -0.921875 7.109375 -1.140625 C 7.296875 -1.671875 7.71875 -2.765625 7.71875 -3.34375 C 7.71875 -3.984375 7.3125 -4.40625 6.5625 -4.40625 C 5.828125 -4.40625 5.3125 -3.96875 4.9375 -3.4375 C 4.9375 -3.5625 4.90625 -3.90625 4.625 -4.140625 C 4.375 -4.359375 4.0625 -4.40625 3.8125 -4.40625 C 2.90625 -4.40625 2.421875 -3.765625 2.25 -3.53125 C 2.203125 -4.109375 1.78125 -4.40625 1.328125 -4.40625 C 0.875 -4.40625 0.6875 -4.015625 0.59375 -3.84375 C 0.421875 -3.484375 0.296875 -2.90625 0.296875 -2.875 C 0.296875 -2.765625 0.390625 -2.765625 0.40625 -2.765625 C 0.515625 -2.765625 0.515625 -2.78125 0.578125 -3 C 0.75 -3.703125 0.953125 -4.1875 1.3125 -4.1875 C 1.46875 -4.1875 1.609375 -4.109375 1.609375 -3.734375 C 1.609375 -3.515625 1.578125 -3.40625 1.453125 -2.890625 Z M 0.875 -0.59375 "
           style="stroke:none;" />
      </symbol>
    </g>
  </defs>
  <sodipodi:namedview
     pagecolor="#ffffff"
     bordercolor="#666666"
     borderopacity="1"
     objecttolerance="10"
     gridtolerance="10"
     guidetolerance="10"
     inkscape:pageopacity="0"
     inkscape:pageshadow="2"
     inkscape:window-width="2255"
     inkscape:window-height="1251"
     id="namedview137"
     showgrid="false"
     inkscape:zoom="2.7727941"
     inkscape:cx="226.66667"
     inkscape:cy="142.66667"
     inkscape:window-x="1392"
     inkscape:window-y="325"
     inkscape:window-maximized="0"
     inkscape:current-layer="surface575"
     inkscape:document-rotation="0" />
  <g
     id="surface575">
    <path
       style="fill-rule:nonzero;fill:rgb(100%,100%,100%);fill-opacity:1;stroke-width:13.6347;stroke-linecap:butt;stroke-linejoin:miter;stroke:rgb(0%,0%,0%);stroke-opacity:1;stroke-dasharray:40.9041,13.6347;stroke-miterlimit:4;"
       d="M 2358.789062 1088.320312 C 2358.789062 786.5625 2120.859375 541.875 1827.382812 541.875 C 1533.867188 541.875 1295.9375 786.5625 1295.9375 1088.320312 C 1295.9375 1390.117188 1533.867188 1634.804688 1827.382812 1634.804688 C 2120.859375 1634.804688 2358.789062 1390.117188 2358.789062 1088.320312 Z M 2358.789062 1088.320312 "
       transform="matrix(0.1,0,0,-0.1,0,214)"
       id="path20" />
    <path
       style="fill:none;stroke-width:22.6701;stroke-linecap:butt;stroke-linejoin:miter;stroke:rgb(0%,0%,0%);stroke-opacity:1;stroke-miterlimit:4;"
       d="M 1398.945312 1049.375 C 1398.945312 1122.890625 1456.835938 1182.460938 1528.28125 1182.460938 C 1599.765625 1182.460938 1657.65625 1122.890625 1657.65625 1049.375 C 1657.65625 975.898438 1599.765625 916.328125 1528.28125 916.328125 C 1456.835938 916.328125 1398.945312 975.898438 1398.945312 1049.375 Z M 1398.945312 1049.375 "
       transform="matrix(0.1,0,0,-0.1,0,214)"
       id="path22" />
    <path
       style="fill:none;stroke-width:22.67;stroke-linecap:butt;stroke-linejoin:miter;stroke:rgb(0%,0%,0%);stroke-opacity:1;stroke-miterlimit:4;"
       d="M 1658.085938 896.445312 L 1658.085938 1200.820312 "
       transform="matrix(0.1,0,0,-0.1,0,214)"
       id="path24" />
    <path
       style=" stroke:none;fill-rule:nonzero;fill:rgb(0%,0%,0%);fill-opacity:1;"
       d="M 196.875 76.226562 L 196.875 76.144531 L 196.871094 76.136719 L 196.871094 76.074219 L 196.863281 76.066406 L 196.863281 76.058594 L 196.859375 76.046875 L 196.855469 76.039062 L 196.839844 76.003906 L 196.828125 76 L 196.8125 75.992188 L 196.808594 75.992188 L 196.789062 75.984375 L 196.773438 75.984375 L 196.769531 75.980469 L 196.726562 75.980469 L 196.71875 75.976562 L 196.621094 75.976562 C 196.089844 76.535156 195.332031 76.542969 194.996094 76.542969 L 194.996094 76.859375 C 195.191406 76.859375 195.746094 76.859375 196.195312 76.613281 L 196.195312 81.125 C 196.195312 81.417969 196.195312 81.53125 195.363281 81.53125 L 195.050781 81.53125 L 195.050781 81.847656 C 195.203125 81.839844 196.222656 81.8125 196.539062 81.8125 C 196.792969 81.8125 197.84375 81.839844 198.023438 81.847656 L 198.023438 81.53125 L 197.707031 81.53125 C 196.875 81.53125 196.875 81.417969 196.875 81.125 Z M 196.875 76.226562 "
       id="path28" />
    <path
       style=" stroke:none;fill-rule:nonzero;fill:rgb(0%,0%,0%);fill-opacity:1;"
       d="M 199.746094 132.113281 L 199.457031 132.113281 C 199.4375 132.308594 199.347656 132.832031 199.246094 132.917969 C 199.175781 132.964844 198.539062 132.964844 198.417969 132.964844 L 196.882812 132.964844 C 197.757812 132.152344 198.046875 131.902344 198.550781 131.488281 C 199.167969 130.960938 199.746094 130.417969 199.746094 129.574219 C 199.746094 128.507812 198.859375 127.847656 197.792969 127.847656 C 196.757812 127.847656 196.058594 128.621094 196.058594 129.433594 C 196.058594 129.882812 196.417969 129.929688 196.503906 129.929688 C 196.703125 129.929688 196.941406 129.777344 196.941406 129.460938 C 196.941406 129.304688 196.882812 128.992188 196.453125 128.992188 C 196.707031 128.367188 197.277344 128.171875 197.667969 128.171875 C 198.5 128.171875 198.9375 128.859375 198.9375 129.574219 C 198.9375 130.34375 198.417969 130.953125 198.152344 131.273438 L 196.144531 133.378906 C 196.058594 133.457031 196.058594 133.472656 196.058594 133.71875 L 199.496094 133.71875 Z M 199.746094 132.113281 "
       id="path32" />
    <path
       style=" stroke:none;fill-rule:nonzero;fill:rgb(0%,0%,0%);fill-opacity:1;"
       d="M 156.402344 109.171875 L 156.464844 109.171875 L 156.519531 109.183594 L 156.582031 109.191406 L 156.636719 109.199219 L 156.691406 109.210938 L 156.746094 109.226562 L 156.800781 109.246094 L 156.851562 109.265625 L 156.902344 109.292969 L 156.953125 109.316406 L 157.042969 109.378906 L 157.085938 109.414062 L 157.125 109.453125 L 157.167969 109.492188 L 157.207031 109.535156 L 157.246094 109.582031 L 157.273438 109.628906 L 157.308594 109.679688 L 157.335938 109.734375 L 157.371094 109.792969 L 157.390625 109.851562 L 157.414062 109.914062 L 157.4375 109.980469 L 157.457031 110.046875 L 157.472656 110.117188 L 157.488281 110.191406 L 157.5 110.269531 L 157.507812 110.347656 L 157.511719 110.429688 L 157.519531 110.511719 L 157.519531 110.601562 C 157.519531 111.699219 156.917969 112.023438 156.433594 112.023438 C 156.101562 112.023438 155.371094 111.929688 155.019531 111.40625 C 155.410156 111.390625 155.503906 111.097656 155.503906 110.910156 C 155.503906 110.628906 155.296875 110.421875 155.042969 110.421875 C 154.8125 110.421875 154.578125 110.574219 154.578125 110.9375 C 154.578125 111.769531 155.441406 112.308594 156.453125 112.308594 C 157.609375 112.308594 158.410156 111.484375 158.410156 110.601562 C 158.410156 109.910156 157.878906 109.214844 156.957031 109.015625 C 157.835938 108.679688 158.152344 108.019531 158.152344 107.480469 C 158.152344 106.78125 157.390625 106.253906 156.472656 106.253906 C 155.542969 106.253906 154.835938 106.738281 154.835938 107.445312 C 154.835938 107.746094 155.019531 107.910156 155.269531 107.910156 C 155.527344 107.910156 155.691406 107.710938 155.691406 107.460938 C 155.691406 107.207031 155.527344 107.019531 155.269531 107.003906 C 155.5625 106.613281 156.132812 106.515625 156.445312 106.515625 C 156.816406 106.515625 157.34375 106.710938 157.34375 107.480469 C 157.34375 107.851562 157.230469 108.253906 157.011719 108.53125 C 156.734375 108.867188 156.503906 108.886719 156.085938 108.910156 C 155.875 108.929688 155.859375 108.929688 155.820312 108.9375 C 155.800781 108.9375 155.734375 108.953125 155.734375 109.054688 C 155.734375 109.171875 155.808594 109.171875 155.953125 109.171875 Z M 156.402344 109.171875 "
       id="path36" />
    <path
       style="fill:none;stroke-width:22.67;stroke-linecap:butt;stroke-linejoin:miter;stroke:rgb(0%,0%,0%);stroke-opacity:1;stroke-miterlimit:4;"
       d="M 2052.890625 777.265625 C 2017.148438 713.632812 1938.046875 691.796875 1876.132812 728.554688 C 1814.257812 765.351562 1793.046875 846.679688 1828.789062 910.351562 C 1864.53125 973.945312 1943.632812 995.78125 2005.585938 959.0625 C 2067.421875 922.265625 2088.632812 840.898438 2052.890625 777.265625 Z M 2052.890625 777.265625 "
       transform="matrix(0.1,0,0,-0.1,0,214)"
       id="path38" />
    <path
       style="fill:none;stroke-width:22.6701;stroke-linecap:butt;stroke-linejoin:miter;stroke:rgb(0%,0%,0%);stroke-opacity:1;stroke-miterlimit:4;"
       d="M 1902.773438 1042.96875 L 1754.765625 779.375 "
       transform="matrix(0.1,0,0,-0.1,0,214)"
       id="path40" />
    <path
       style="fill:none;stroke-width:22.67;stroke-linecap:butt;stroke-linejoin:miter;stroke:rgb(0%,0%,0%);stroke-opacity:1;stroke-miterlimit:4;"
       d="M 1957.851562 1489.570312 C 2026.835938 1470.546875 2067.8125 1397.617188 2049.375 1326.640625 C 2030.820312 1255.664062 1959.882812 1213.515625 1890.859375 1232.539062 C 1821.835938 1251.601562 1780.859375 1324.53125 1799.375 1395.507812 C 1817.890625 1466.484375 1888.789062 1508.59375 1957.851562 1489.570312 Z M 1957.851562 1489.570312 "
       transform="matrix(0.1,0,0,-0.1,0,214)"
       id="path42" />
    <path
       style="fill:none;stroke-width:22.67;stroke-linecap:butt;stroke-linejoin:miter;stroke:rgb(0%,0%,0%);stroke-opacity:1;stroke-miterlimit:4;"
       d="M 1747.070312 1271.71875 L 2033.007812 1192.929688 "
       transform="matrix(0.1,0,0,-0.1,0,214)"
       id="path44" />
    <path
       style="fill:none;stroke-width:21.8439;stroke-linecap:round;stroke-linejoin:miter;stroke:rgb(100%,0%,0%);stroke-opacity:1;stroke-miterlimit:4;"
       d="M 2202.382812 691.679688 L 2362.382812 545.546875 "
       transform="matrix(0.1,0,0,-0.1,0,214)"
       id="path46" />
    <path
       style="fill:none;stroke-width:26.5687;stroke-linecap:round;stroke-linejoin:miter;stroke:rgb(100%,0%,0%);stroke-opacity:1;stroke-miterlimit:4;"
       d="M 1265.859375 1508.28125 L 1392.03125 1415.351562 "
       transform="matrix(0.1,0,0,-0.1,0,214)"
       id="path48" />
    <path
       style="fill:none;stroke-width:25.5736;stroke-linecap:round;stroke-linejoin:miter;stroke:rgb(100%,0%,0%);stroke-opacity:1;stroke-miterlimit:4;"
       d="M 910.664062 903.867188 L 1300.3125 972.890625 "
       transform="matrix(0.1,0,0,-0.1,0,214)"
       id="path50" />
    <path
       style="fill-rule:nonzero;fill:rgb(0%,0%,0%);fill-opacity:1;stroke-width:15.1358;stroke-linecap:butt;stroke-linejoin:miter;stroke:rgb(0%,0%,0%);stroke-opacity:1;stroke-miterlimit:4;"
       d="M 627.851562 2052.460938 C 640.78125 2042.34375 643.203125 2023.59375 633.242188 2010.507812 C 623.242188 1997.5 604.648438 1995.078125 591.679688 2005.195312 C 578.75 2015.273438 576.367188 2034.023438 586.367188 2047.070312 C 596.328125 2060.117188 614.921875 2062.5 627.851562 2052.460938 Z M 627.851562 2052.460938 "
       transform="matrix(0.1,0,0,-0.1,0,214)"
       id="path52" />
    <path
       style="fill:none;stroke-width:13.3894;stroke-linecap:butt;stroke-linejoin:miter;stroke:rgb(0%,0%,0%);stroke-opacity:1;stroke-miterlimit:4;"
       d="M 603.046875 2034.101562 L 1131.679688 1621.914062 "
       transform="matrix(0.1,0,0,-0.1,0,214)"
       id="path54" />
    <path
       style=" stroke:none;fill-rule:evenodd;fill:rgb(0%,0%,0%);fill-opacity:1;"
       d="M 108.945312 48.519531 L 105.210938 49 L 114.226562 52.628906 L 108.464844 44.742188 Z M 108.945312 48.519531 "
       id="path56" />
    <path
       style="fill:none;stroke-width:6.6947;stroke-linecap:butt;stroke-linejoin:miter;stroke:rgb(0%,0%,0%);stroke-opacity:1;stroke-miterlimit:4;"
       d="M 1089.492188 1654.84375 L 1052.109375 1650 L 1142.265625 1613.710938 L 1084.648438 1692.578125 Z M 1089.492188 1654.84375 "
       transform="matrix(0.1,0,0,-0.1,0,214)"
       id="path58" />
    <path
       style="fill:none;stroke-width:13.3894;stroke-linecap:butt;stroke-linejoin:miter;stroke:rgb(0%,0%,0%);stroke-opacity:1;stroke-miterlimit:4;"
       d="M 624.804688 1780.625 C 769.101562 1827.890625 849.882812 1935.898438 842.890625 2065.703125 "
       transform="matrix(0.1,0,0,-0.1,0,214)"
       id="path60" />
    <path
       style="fill:none;stroke-width:13.3894;stroke-linecap:butt;stroke-linejoin:miter;stroke:rgb(0%,0%,0%);stroke-opacity:1;stroke-miterlimit:4;"
       d="M 670.234375 1571.796875 C 926.328125 1690.820312 1017.460938 1825.625 1051.210938 2069.648438 "
       transform="matrix(0.1,0,0,-0.1,0,214)"
       id="path62" />
    <path
       style="fill:none;stroke-width:13.3894;stroke-linecap:butt;stroke-linejoin:miter;stroke:rgb(0%,0%,0%);stroke-opacity:1;stroke-miterlimit:4;"
       d="M 653.359375 1681.367188 C 856.5625 1756.40625 918.4375 1872.695312 937.773438 2059.0625 "
       transform="matrix(0.1,0,0,-0.1,0,214)"
       id="path64" />
    <path
       style="fill:none;stroke-width:13.3894;stroke-linecap:butt;stroke-linejoin:miter;stroke:rgb(0%,0%,0%);stroke-opacity:1;stroke-miterlimit:4;"
       d="M 671.210938 1436.367188 C 948.320312 1576.132812 1136.054688 1794.257812 1193.203125 2118.515625 "
       transform="matrix(0.1,0,0,-0.1,0,214)"
       id="path66" />
    <path
       style="fill:none;stroke-width:21.2799;stroke-linecap:round;stroke-linejoin:miter;stroke:rgb(100%,0%,0%);stroke-opacity:1;stroke-miterlimit:4;"
       d="M 2277.226562 1394.648438 L 2531.171875 1560.507812 "
       transform="matrix(0.1,0,0,-0.1,0,214)"
       id="path68" />
    <path
       style="fill-rule:nonzero;fill:rgb(0%,0%,0%);fill-opacity:1;stroke-width:15.1358;stroke-linecap:butt;stroke-linejoin:miter;stroke:rgb(0%,0%,0%);stroke-opacity:1;stroke-miterlimit:4;"
       d="M 137.460938 805.078125 C 153.632812 807.734375 169.0625 796.835938 171.953125 780.625 C 174.726562 764.453125 163.90625 749.140625 147.695312 746.445312 C 131.523438 743.789062 116.132812 754.726562 113.320312 770.9375 C 110.46875 787.109375 121.289062 802.382812 137.460938 805.078125 Z M 137.460938 805.078125 "
       transform="matrix(0.1,0,0,-0.1,0,214)"
       id="path86" />
    <path
       style="fill:none;stroke-width:13.3894;stroke-linecap:butt;stroke-linejoin:miter;stroke:rgb(0%,0%,0%);stroke-opacity:1;stroke-miterlimit:4;"
       d="M 134.179688 774.375 L 795.46875 883.867188 "
       transform="matrix(0.1,0,0,-0.1,0,214)"
       id="path88" />
    <path
       style=" stroke:none;fill-rule:evenodd;fill:rgb(0%,0%,0%);fill-opacity:1;"
       d="M 74.265625 126.492188 L 72.089844 129.5625 L 80.871094 125.390625 L 71.164062 124.285156 Z M 74.265625 126.492188 "
       id="path90" />
    <path
       style="fill:none;stroke-width:6.6947;stroke-linecap:butt;stroke-linejoin:miter;stroke:rgb(0%,0%,0%);stroke-opacity:1;stroke-miterlimit:4;"
       d="M 742.65625 875.15625 L 720.898438 844.375 L 808.710938 886.09375 L 711.640625 897.148438 Z M 742.65625 875.15625 "
       transform="matrix(0.1,0,0,-0.1,0,214)"
       id="path92" />
    <path
       style="fill:none;stroke-width:13.3894;stroke-linecap:butt;stroke-linejoin:miter;stroke:rgb(0%,0%,0%);stroke-opacity:1;stroke-miterlimit:4;"
       d="M 335.3125 618.632812 C 398.320312 756.796875 373.632812 889.375 273.4375 972.1875 "
       transform="matrix(0.1,0,0,-0.1,0,214)"
       id="path94" />
    <path
       style="fill:none;stroke-width:13.3894;stroke-linecap:butt;stroke-linejoin:miter;stroke:rgb(0%,0%,0%);stroke-opacity:1;stroke-miterlimit:4;"
       d="M 519.648438 510.546875 C 605.664062 779.53125 568.28125 937.890625 411.71875 1128.085938 "
       transform="matrix(0.1,0,0,-0.1,0,214)"
       id="path96" />
    <path
       style="fill:none;stroke-width:13.3894;stroke-linecap:butt;stroke-linejoin:miter;stroke:rgb(0%,0%,0%);stroke-opacity:1;stroke-miterlimit:4;"
       d="M 427.617188 572.382812 C 510.15625 772.65625 466.601562 896.953125 342.617188 1037.5 "
       transform="matrix(0.1,0,0,-0.1,0,214)"
       id="path98" />
    <path
       style="fill:none;stroke-width:13.3894;stroke-linecap:butt;stroke-linejoin:miter;stroke:rgb(0%,0%,0%);stroke-opacity:1;stroke-miterlimit:4;"
       d="M 619.921875 419.492188 C 704.921875 717.96875 671.71875 1003.867188 471.953125 1265.625 "
       transform="matrix(0.1,0,0,-0.1,0,214)"
       id="path100" />
    <path
       style="fill-rule:nonzero;fill:rgb(0%,0%,0%);fill-opacity:1;stroke-width:15.1358;stroke-linecap:butt;stroke-linejoin:miter;stroke:rgb(0%,0%,0%);stroke-opacity:1;stroke-miterlimit:4;"
       d="M 2908.359375 46.210938 C 2895.820312 56.835938 2894.140625 75.664062 2904.609375 88.359375 C 2915.078125 100.976562 2933.75 102.65625 2946.328125 92.03125 C 2958.867188 81.484375 2960.507812 62.65625 2950 50 C 2939.570312 37.34375 2920.898438 35.703125 2908.359375 46.210938 Z M 2908.359375 46.210938 "
       transform="matrix(0.1,0,0,-0.1,0,214)"
       id="path102" />
    <path
       style="fill:none;stroke-width:13.3894;stroke-linecap:butt;stroke-linejoin:miter;stroke:rgb(0%,0%,0%);stroke-opacity:1;stroke-miterlimit:4;"
       d="M 2933.867188 63.632812 L 2421.523438 495.859375 "
       transform="matrix(0.1,0,0,-0.1,0,214)"
       id="path104" />
    <path
       style=" stroke:none;fill-rule:evenodd;fill:rgb(0%,0%,0%);fill-opacity:1;"
       d="M 246.246094 167.863281 L 249.992188 167.523438 L 241.125 163.550781 L 246.578125 171.65625 Z M 246.246094 167.863281 "
       id="path106" />
    <path
       style="fill:none;stroke-width:6.6947;stroke-linecap:butt;stroke-linejoin:miter;stroke:rgb(0%,0%,0%);stroke-opacity:1;stroke-miterlimit:4;"
       d="M 2462.382812 461.328125 L 2499.921875 464.765625 L 2411.25 504.492188 L 2465.78125 423.4375 Z M 2462.382812 461.328125 "
       transform="matrix(0.1,0,0,-0.1,0,214)"
       id="path108" />
    <path
       style="fill:none;stroke-width:13.3894;stroke-linecap:butt;stroke-linejoin:miter;stroke:rgb(0%,0%,0%);stroke-opacity:1;stroke-miterlimit:4;"
       d="M 2921.875 317.734375 C 2775.859375 276.09375 2690.976562 171.25 2692.96875 41.289062 "
       transform="matrix(0.1,0,0,-0.1,0,214)"
       id="path110" />
    <path
       style="fill:none;stroke-width:13.3894;stroke-linecap:butt;stroke-linejoin:miter;stroke:rgb(0%,0%,0%);stroke-opacity:1;stroke-miterlimit:4;"
       d="M 2884.53125 528.164062 C 2624.0625 419.101562 2527.773438 287.929688 2484.648438 45.390625 "
       id="path112"
       transform="matrix(0.1,0,0,-0.1,0,214)" />
    <path
       style="fill:none;stroke-width:13.3894;stroke-linecap:butt;stroke-linejoin:miter;stroke:rgb(0%,0%,0%);stroke-opacity:1;stroke-miterlimit:4;"
       d="M 2897.1875 418.046875 C 2691.25 350.859375 2624.921875 237.109375 2598.398438 51.601562 "
       transform="matrix(0.1,0,0,-0.1,0,214)"
       id="path114" />
    <path
       style="fill:none;stroke-width:13.3894;stroke-linecap:butt;stroke-linejoin:miter;stroke:rgb(0%,0%,0%);stroke-opacity:1;stroke-miterlimit:4;"
       d="M 2888.789062 663.515625 C 2606.484375 534.570312 2410.46875 323.867188 2340.898438 2.03125 "
       transform="matrix(0.1,0,0,-0.1,0,214)"
       id="path116" />
    <path
       style="fill-rule:nonzero;fill:rgb(0%,0%,0%);fill-opacity:1;stroke-width:15.1358;stroke-linecap:butt;stroke-linejoin:miter;stroke:rgb(0%,0%,0%);stroke-opacity:1;stroke-miterlimit:4;"
       d="M 3213.164062 1995.039062 C 3199.765625 1985.507812 3181.132812 1988.554688 3171.40625 2001.796875 C 3161.796875 2015.117188 3164.765625 2033.59375 3178.164062 2043.164062 C 3191.484375 2052.695312 3210.15625 2049.648438 3219.804688 2036.328125 C 3229.453125 2023.085938 3226.445312 2004.570312 3213.164062 1995.039062 Z M 3213.164062 1995.039062 "
       transform="matrix(0.1,0,0,-0.1,0,214)"
       id="path118" />
    <path
       style="fill:none;stroke-width:13.3894;stroke-linecap:butt;stroke-linejoin:miter;stroke:rgb(0%,0%,0%);stroke-opacity:1;stroke-miterlimit:4;"
       d="M 3202.578125 2024.023438 L 2656.992188 1634.648438 "
       transform="matrix(0.1,0,0,-0.1,0,214)"
       id="path120" />
    <path
       style=" stroke:none;fill-rule:evenodd;fill:rgb(0%,0%,0%);fill-opacity:1;"
       d="M 270.054688 47.425781 L 270.65625 43.707031 L 264.609375 51.316406 L 273.8125 48.039062 Z M 270.054688 47.425781 "
       id="path122" />
    <path
       style="fill:none;stroke-width:6.6947;stroke-linecap:butt;stroke-linejoin:miter;stroke:rgb(0%,0%,0%);stroke-opacity:1;stroke-miterlimit:4;"
       d="M 2700.546875 1665.703125 L 2706.5625 1702.929688 L 2646.09375 1626.835938 L 2738.125 1659.609375 Z M 2700.546875 1665.703125 "
       transform="matrix(0.1,0,0,-0.1,0,214)"
       id="path124" />
    <path
       style="fill:none;stroke-width:13.3894;stroke-linecap:butt;stroke-linejoin:miter;stroke:rgb(0%,0%,0%);stroke-opacity:1;stroke-miterlimit:4;"
       d="M 2953.4375 2075.351562 C 2957.65625 1923.554688 3038.203125 1815.390625 3164.609375 1785.15625 "
       transform="matrix(0.1,0,0,-0.1,0,214)"
       id="path126" />
    <path
       style="fill:none;stroke-width:13.3894;stroke-linecap:butt;stroke-linejoin:miter;stroke:rgb(0%,0%,0%);stroke-opacity:1;stroke-miterlimit:4;"
       d="M 2740.3125 2091.25 C 2781.484375 1811.875 2884.765625 1686.132812 3109.101562 1584.296875 "
       transform="matrix(0.1,0,0,-0.1,0,214)"
       id="path128" />
    <path
       style="fill:none;stroke-width:13.3894;stroke-linecap:butt;stroke-linejoin:miter;stroke:rgb(0%,0%,0%);stroke-opacity:1;stroke-miterlimit:4;"
       d="M 2850.15625 2076.25 C 2864.21875 1860.078125 2958.046875 1767.65625 3131.210938 1696.054688 "
       transform="matrix(0.1,0,0,-0.1,0,214)"
       id="path130" />
    <path
       style="fill:none;stroke-width:13.3894;stroke-linecap:butt;stroke-linejoin:miter;stroke:rgb(0%,0%,0%);stroke-opacity:1;stroke-miterlimit:4;"
       d="M 2610.234375 2128.867188 C 2665.273438 1823.4375 2820.9375 1581.367188 3115.507812 1434.257812 "
       transform="matrix(0.1,0,0,-0.1,0,214)"
       id="path132" />
    <g
       id="g1032"
       transform="matrix(2.0740585,0,0,2.0740585,-36.81966,8.6382807)"
       inkscape:label=""
       style="fill:#ff0000">
      <g
         id="g8618"
         style="fill:#ff0000">
        <g
           style="fill:#ff0000;fill-opacity:1"
           id="g2451">
          <use
             xlink:href="#symbol2284"
             x="91.925003"
             y="81.962997"
             id="use9623"
             width="100%"
             height="100%"
             style="fill:#ff0000" />
        </g>
        <g
           style="fill:#ff0000;fill-opacity:1"
           id="g8692">
          <use
             xlink:href="#symbol6897"
             x="98.816002"
             y="83.457001"
             id="use9891"
             width="100%"
             height="100%"
             style="fill:#ff0000" />
        </g>
      </g>
    </g>
    <g
       id="g1132"
       transform="translate(141.68423,-31.321157)"
       inkscape:label=""
       style="fill:#ff0000">
      <g
         id="g6425"
         style="fill:#ff0000">
        <g
           style="fill:#ff0000;fill-opacity:1"
           id="g5960">
          <use
             xlink:href="#symbol3059"
             x="91.925003"
             y="81.962997"
             id="use5401"
             width="100%"
             height="100%"
             style="fill:#ff0000" />
        </g>
        <g
           style="fill:#ff0000;fill-opacity:1"
           id="g1956">
          <use
             xlink:href="#symbol7273"
             x="98.816002"
             y="83.457001"
             id="use1581"
             width="100%"
             height="100%"
             style="fill:#ff0000" />
        </g>
      </g>
    </g>
    <g
       id="g1247"
       transform="translate(150.4017,61.69807)"
       inkscape:label=""
       style="fill:#ff0000">
      <g
         id="g8348"
         style="fill:#ff0000">
        <g
           style="fill:#ff0000;fill-opacity:1"
           id="g398">
          <use
             xlink:href="#symbol6713"
             x="91.925003"
             y="81.962997"
             id="use4125"
             width="100%"
             height="100%"
             style="fill:#ff0000" />
        </g>
        <g
           style="fill:#ff0000;fill-opacity:1"
           id="g2953">
          <use
             xlink:href="#symbol4043"
             x="98.816002"
             y="83.457001"
             id="use2007"
             width="100%"
             height="100%"
             style="fill:#ff0000" />
        </g>
      </g>
    </g>
    <g
       id="g1377"
       transform="translate(42.310349,-36.769032)"
       inkscape:label=""
       style="fill:#ff0000">
      <g
         id="g2079"
         style="fill:#ff0000">
        <g
           style="fill:#ff0000;fill-opacity:1"
           id="g8771">
          <use
             xlink:href="#symbol6479"
             x="91.925003"
             y="81.962997"
             id="use3223"
             width="100%"
             height="100%"
             style="fill:#ff0000" />
        </g>
        <g
           style="fill:#ff0000;fill-opacity:1"
           id="g4872">
          <use
             xlink:href="#symbol3769"
             x="98.816002"
             y="83.457001"
             id="use1719"
             width="100%"
             height="100%"
             style="fill:#ff0000" />
        </g>
      </g>
    </g>
    <g
       id="g1522"
       transform="translate(15.687986,28.272721)"
       inkscape:label=""
       style="fill:#ff0000">
      <g
         id="g259"
         style="fill:#ff0000">
        <g
           style="fill:#ff0000;fill-opacity:1"
           id="g6166">
          <use
             xlink:href="#symbol5012"
             x="91.925003"
             y="81.962997"
             id="use791"
             width="100%"
             height="100%"
             style="fill:#ff0000" />
        </g>
        <g
           style="fill:#ff0000;fill-opacity:1"
           id="g7844">
          <use
             xlink:href="#symbol9000"
             x="98.816002"
             y="83.457001"
             id="use8079"
             width="100%"
             height="100%"
             style="fill:#ff0000" />
        </g>
      </g>
    </g>
    <g
       id="g1682"
       transform="matrix(1.4047872,0,0,1.4047872,196.31611,-106.52945)"
       inkscape:label="">
      <g
         id="g246">
        <g
           style="fill:#000000;fill-opacity:1"
           id="g1559">
          <use
             xlink:href="#symbol9878"
             x="91.925003"
             y="81.962997"
             id="use5963"
             width="100%"
             height="100%" />
        </g>
        <g
           style="fill:#000000;fill-opacity:1"
           id="g1546">
          <use
             xlink:href="#symbol7818"
             x="97.972"
             y="83.457001"
             id="use7790"
             width="100%"
             height="100%" />
        </g>
      </g>
    </g>
    <g
       id="g1857"
       transform="matrix(1.4047872,0,0,1.4047872,171.63406,89.5499)"
       inkscape:label="">
      <g
         id="g7926">
        <g
           style="fill:#000000;fill-opacity:1"
           id="g7506">
          <use
             xlink:href="#symbol361"
             x="91.925003"
             y="81.962997"
             id="use6581"
             width="100%"
             height="100%" />
        </g>
        <g
           style="fill:#000000;fill-opacity:1"
           id="g1844">
          <use
             xlink:href="#symbol2274"
             x="97.972"
             y="83.457001"
             id="use4880"
             width="100%"
             height="100%" />
        </g>
      </g>
    </g>
    <g
       id="g2047"
       transform="matrix(1.4047872,0,0,1.4047872,-93.936936,-105.76859)"
       inkscape:label="">
      <g
         id="g925">
        <g
           style="fill:#000000;fill-opacity:1"
           id="g2565">
          <use
             xlink:href="#symbol6186"
             x="91.925003"
             y="81.962997"
             id="use590"
             width="100%"
             height="100%" />
        </g>
        <g
           style="fill:#000000;fill-opacity:1"
           id="g953">
          <use
             xlink:href="#symbol7240"
             x="97.972"
             y="83.457001"
             id="use5298"
             width="100%"
             height="100%" />
        </g>
      </g>
    </g>
    <g
       id="g2252"
       transform="matrix(1.4047872,0,0,1.4047872,-125.23115,37.727257)"
       inkscape:label="">
      <g
         id="g225">
        <g
           style="fill:#000000;fill-opacity:1"
           id="g4723">
          <use
             xlink:href="#symbol2320"
             x="91.925003"
             y="81.962997"
             id="use6741"
             width="100%"
             height="100%" />
        </g>
        <g
           style="fill:#000000;fill-opacity:1"
           id="g4990">
          <use
             xlink:href="#symbol4644"
             x="97.972"
             y="83.457001"
             id="use1200"
             width="100%"
             height="100%" />
        </g>
      </g>
    </g>
    <g
       inkscape:label=""
       transform="translate(32.498981,106.91253)"
       id="g1206">
      <g
         id="g4527">
        <g
           id="g3487"
           style="fill:#000000;fill-opacity:1">
          <use
             height="100%"
             width="100%"
             id="use102"
             y="81.962997"
             x="91.925003"
             xlink:href="#symbol707" />
        </g>
      </g>
    </g>
    <g
       inkscape:label=""
       transform="translate(53.414686,26.762744)"
       id="g1233">
      <g
         id="g1231">
        <g
           id="g1229"
           style="fill:#000000;fill-opacity:1">
          <use
             height="100%"
             width="100%"
             id="use1227"
             y="81.962997"
             x="91.925003"
             xlink:href="#symbol707" />
        </g>
      </g>
    </g>
    <g
       id="g1241"
       transform="translate(95.084955,48.189886)"
       inkscape:label="">
      <g
         id="g1239">
        <g
           style="fill:#000000;fill-opacity:1"
           id="g1237">
          <use
             xlink:href="#symbol707"
             x="91.925003"
             y="81.962997"
             id="use1235"
             width="100%"
             height="100%" />
        </g>
      </g>
    </g>
    <g
       inkscape:label=""
       transform="translate(93.401158,-3.339078)"
       id="g1250">
      <g
         id="g1248">
        <g
           id="g1245"
           style="fill:#000000;fill-opacity:1">
          <use
             height="100%"
             width="100%"
             id="use1243"
             y="81.962997"
             x="91.925003"
             xlink:href="#symbol707" />
        </g>
      </g>
    </g>
  </g>
</svg>
